<!-- Done Reviewing -->
<svg>
  <symbol id="google" xmlns="http://www.w3.org/2000/svg" viewBox="0 0 512 512" fill="currentColor">
    <path
      d="M473.16 221.48l-2.26-9.59H262.46v88.22H387c-12.93 61.4-72.93 93.72-121.94 93.72-35.66 0-73.25-15-98.13-39.11a140.08 140.08 0 01-41.8-98.88c0-37.16 16.7-74.33 41-98.78s61-38.13 97.49-38.13c41.79 0 71.74 22.19 82.94 32.31l62.69-62.36C390.86 72.72 340.34 32 261.6 32c-60.75 0-119 23.27-161.58 65.71C58 139.5 36.25 199.93 36.25 256s20.58 113.48 61.3 155.6c43.51 44.92 105.13 68.4 168.58 68.4 57.73 0 112.45-22.62 151.45-63.66 38.34-40.4 58.17-96.3 58.17-154.9 0-24.67-2.48-39.32-2.59-39.96z" />
  </symbol>
  <symbol
    id="facebook"
    xmlns="http://www.w3.org/2000/svg"
    viewBox="0 0 512 512"
    fill="currentColor">
    <path
      d="M480 257.35c0-123.7-100.3-224-224-224s-224 100.3-224 224c0 111.8 81.9 204.47 189 221.29V322.12h-56.89v-64.77H221V208c0-56.13 33.45-87.16 84.61-87.16 24.51 0 50.15 4.38 50.15 4.38v55.13H327.5c-27.81 0-36.51 17.26-36.51 35v42h62.12l-9.92 64.77H291v156.54c107.1-16.81 189-109.48 189-221.31z"
      fill-rule="evenodd" />
  </symbol>
  <symbol
    id="instagram"
    xmlns="http://www.w3.org/2000/svg"
    viewBox="0 0 512 512"
    fill="currentColor">
    <path
      d="M349.33 69.33a93.62 93.62 0 0193.34 93.34v186.66a93.62 93.62 0 01-93.34 93.34H162.67a93.62 93.62 0 01-93.34-93.34V162.67a93.62 93.62 0 0193.34-93.34h186.66m0-37.33H162.67C90.8 32 32 90.8 32 162.67v186.66C32 421.2 90.8 480 162.67 480h186.66C421.2 480 480 421.2 480 349.33V162.67C480 90.8 421.2 32 349.33 32z"></path>
    <path
      d="M377.33 162.67a28 28 0 1128-28 27.94 27.94 0 01-28 28zM256 181.33A74.67 74.67 0 11181.33 256 74.75 74.75 0 01256 181.33m0-37.33a112 112 0 10112 112 112 112 0 00-112-112z"></path>
  </symbol>
  <symbol id="twitter" xmlns="http://www.w3.org/2000/svg" viewBox="0 0 512 512" fill="currentColor">
    <path
      d="M496 109.5a201.8 201.8 0 01-56.55 15.3 97.51 97.51 0 0043.33-53.6 197.74 197.74 0 01-62.56 23.5A99.14 99.14 0 00348.31 64c-54.42 0-98.46 43.4-98.46 96.9a93.21 93.21 0 002.54 22.1 280.7 280.7 0 01-203-101.3A95.69 95.69 0 0036 130.4c0 33.6 17.53 63.3 44 80.7A97.5 97.5 0 0135.22 199v1.2c0 47 34 86.1 79 95a100.76 100.76 0 01-25.94 3.4 94.38 94.38 0 01-18.51-1.8c12.51 38.5 48.92 66.5 92.05 67.3A199.59 199.59 0 0139.5 405.6a203 203 0 01-23.5-1.4A278.68 278.68 0 00166.74 448c181.36 0 280.44-147.7 280.44-275.8 0-4.2-.11-8.4-.31-12.5A198.48 198.48 0 00496 109.5z"></path>
  </symbol>
</svg>
